<?xml version="1.0" encoding="UTF-8"?>
<svg xmlns="http://www.w3.org/2000/svg" xmlns:xlink="http://www.w3.org/1999/xlink" width="612pt" height="792pt" viewBox="0 0 612 792" version="1.1">
<g id="surface1">
<path style="fill:none;stroke-width:0.39998;stroke-linecap:butt;stroke-linejoin:miter;stroke:rgb(0%,0%,0%);stroke-opacity:1;stroke-miterlimit:10;" d="M -0.00185066 0.00134879 L 50.001367 0.00134879 " transform="matrix(0.996264,0,0,-0.996264,128.787,145.724)"/>
<path style="fill:none;stroke-width:0.39998;stroke-linecap:butt;stroke-linejoin:miter;stroke:rgb(0%,0%,0%);stroke-opacity:1;stroke-miterlimit:10;" d="M 0 0.00134879 L 9.998291 9.99964 " transform="matrix(0.996264,0,0,-0.996264,138.75,145.724)"/>
<path style="fill:none;stroke-width:0.39998;stroke-linecap:butt;stroke-linejoin:miter;stroke:rgb(0%,0%,0%);stroke-opacity:1;stroke-miterlimit:10;" d="M -0.00106648 0.00134879 L 10.001145 9.99964 " transform="matrix(0.996264,0,0,-0.996264,148.712,145.724)"/>
<path style="fill:none;stroke-width:0.39998;stroke-linecap:butt;stroke-linejoin:miter;stroke:rgb(0%,0%,0%);stroke-opacity:1;stroke-miterlimit:10;" d="M 0.00078418 0.00134879 L 9.999075 9.99964 " transform="matrix(0.996264,0,0,-0.996264,158.675,145.724)"/>
<path style="fill:none;stroke-width:0.39998;stroke-linecap:butt;stroke-linejoin:miter;stroke:rgb(0%,0%,0%);stroke-opacity:1;stroke-miterlimit:10;" d="M -0.00128605 0.00134879 L 10.000926 9.99964 " transform="matrix(0.996264,0,0,-0.996264,168.638,145.724)"/>
<path style="fill:none;stroke-width:0.39998;stroke-linecap:butt;stroke-linejoin:miter;stroke:rgb(0%,0%,0%);stroke-opacity:1;stroke-miterlimit:10;" d="M 0.00131742 0.00134879 L 0.00131742 -100.001166 " transform="matrix(0.996264,0,0,-0.996264,153.694,145.724)"/>
<path style="fill:none;stroke-width:0.39998;stroke-linecap:butt;stroke-linejoin:miter;stroke:rgb(0%,0%,0%);stroke-opacity:1;stroke-miterlimit:10;" d="M -0.000533242 -0.00156836 L 19.99997 -0.00156836 " transform="matrix(0.996264,0,0,-0.996264,143.731,245.35)"/>
<path style="fill:none;stroke-width:0.39998;stroke-linecap:butt;stroke-linejoin:miter;stroke:rgb(0%,0%,0%);stroke-opacity:1;stroke-miterlimit:10;" d="M -0.000533242 -0.00156836 L -0.000533242 -19.99815 " transform="matrix(0.996264,0,0,-0.996264,143.731,245.35)"/>
<path style="fill:none;stroke-width:0.39998;stroke-linecap:butt;stroke-linejoin:miter;stroke:rgb(0%,0%,0%);stroke-opacity:1;stroke-miterlimit:10;" d="M 0.000250938 0.00156836 L -20.000252 0.00156836 " transform="matrix(0.996264,0,0,-0.996264,163.656,265.275)"/>
<path style="fill:none;stroke-width:0.39998;stroke-linecap:butt;stroke-linejoin:miter;stroke:rgb(0%,0%,0%);stroke-opacity:1;stroke-miterlimit:10;" d="M 0.000250938 0.00156836 L 0.000250938 19.99815 " transform="matrix(0.996264,0,0,-0.996264,163.656,265.275)"/>
</g>
</svg>
