<?xml version="1.0" encoding="UTF-8"?>
<svg xmlns="http://www.w3.org/2000/svg" xmlns:xlink="http://www.w3.org/1999/xlink" width="612pt" height="792pt" viewBox="0 0 612 792" version="1.1">
<g id="surface1">
<path style="fill:none;stroke-width:0.39998;stroke-linecap:butt;stroke-linejoin:miter;stroke:rgb(0%,0%,0%);stroke-opacity:1;stroke-miterlimit:10;" d="M 0 0.00159973 L 0 100.000193 " transform="matrix(0.996264,0,0,-0.996264,138.75,220.443)"/>
<path style="fill:none;stroke-width:0.39998;stroke-linecap:butt;stroke-linejoin:miter;stroke:rgb(0%,0%,0%);stroke-opacity:1;stroke-miterlimit:10;" d="M 0 0.00159973 L 74.998945 0.00159973 " transform="matrix(0.996264,0,0,-0.996264,138.75,220.443)"/>
<path style="fill:none;stroke-width:0.39998;stroke-linecap:butt;stroke-linejoin:miter;stroke:rgb(0%,0%,100%);stroke-opacity:1;stroke-miterlimit:10;" d="M 0.00078418 0.00159973 L -19.999719 79.999691 " transform="matrix(0.996264,0,0,-0.996264,158.675,220.443)"/>
<path style=" stroke:none;fill-rule:nonzero;fill:rgb(100%,0%,0%);fill-opacity:1;" d="M 148.710938 210.480469 C 148.480469 209.078125 148.019531 207.675781 147.328125 206.269531 L 150.097656 206.269531 C 149.40625 207.675781 148.941406 209.078125 148.710938 210.480469 "/>
<path style="fill:none;stroke-width:0.39998;stroke-linecap:butt;stroke-linejoin:miter;stroke:rgb(100%,0%,0%);stroke-opacity:1;stroke-miterlimit:10;" d="M -0.00106648 -0.000752812 L -0.00106648 -28.054781 " transform="matrix(0.996264,0,0,-0.996264,148.712,180.593)"/>
<path style=" stroke:none;fill-rule:nonzero;fill:rgb(100%,0%,0%);fill-opacity:1;" d="M 158.675781 194.539063 C 158.90625 195.945313 159.367188 197.347656 160.058594 198.75 L 157.289063 198.75 C 157.984375 197.347656 158.445313 195.945313 158.675781 194.539063 "/>
<path style="fill:none;stroke-width:0.39998;stroke-linecap:butt;stroke-linejoin:miter;stroke:rgb(100%,0%,0%);stroke-opacity:1;stroke-miterlimit:10;" d="M 0.00078418 0.00169383 L 0.00078418 23.052656 " transform="matrix(0.996264,0,0,-0.996264,158.675,219.447)"/>
<path style=" stroke:none;fill-rule:nonzero;fill:rgb(100%,0%,0%);fill-opacity:1;" d="M 145.722656 219.445313 C 147.128906 219.214844 148.53125 218.753906 149.933594 218.0625 L 149.933594 220.832031 C 148.53125 220.140625 147.128906 219.679688 145.722656 219.445313 "/>
<path style="fill:none;stroke-width:0.39998;stroke-linecap:butt;stroke-linejoin:miter;stroke:rgb(100%,0%,0%);stroke-opacity:1;stroke-miterlimit:10;" d="M 0.000690078 0.00169383 L -10.056414 0.00169383 " transform="matrix(0.996264,0,0,-0.996264,157.679,219.447)"/>
<path style=" stroke:none;fill-rule:nonzero;fill:rgb(100%,0%,0%);fill-opacity:1;" d="M 151.699219 140.742188 C 150.296875 140.972656 148.894531 141.433594 147.492188 142.125 L 147.492188 139.355469 C 148.894531 140.050781 150.296875 140.511719 151.699219 140.742188 "/>
<path style="fill:none;stroke-width:0.39998;stroke-linecap:butt;stroke-linejoin:miter;stroke:rgb(100%,0%,0%);stroke-opacity:1;stroke-miterlimit:10;" d="M 0.0000941016 -0.000188203 L 10.053278 -0.000188203 " transform="matrix(0.996264,0,0,-0.996264,139.746,140.742)"/>
<path style=" stroke:none;fill-rule:nonzero;fill:rgb(100%,0%,0%);fill-opacity:1;" d="M 139.746094 131.777344 C 139.976563 133.179688 140.4375 134.582031 141.128906 135.984375 L 138.359375 135.984375 C 139.054688 134.582031 139.515625 133.179688 139.746094 131.777344 "/>
<path style="fill:none;stroke-width:0.39998;stroke-linecap:butt;stroke-linejoin:miter;stroke:rgb(100%,0%,0%);stroke-opacity:1;stroke-miterlimit:10;" d="M 0.0000941016 -0.0000941016 L 0.0000941016 6.053773 " transform="matrix(0.996264,0,0,-0.996264,139.746,139.746)"/>
</g>
</svg>
