<?xml version="1.0" encoding="UTF-8"?>
<svg xmlns="http://www.w3.org/2000/svg" xmlns:xlink="http://www.w3.org/1999/xlink" width="76pt" height="101pt" viewBox="0 0 76 101" version="1.1">
<g id="surface1">
<path style="fill:none;stroke-width:0.39998;stroke-linecap:butt;stroke-linejoin:miter;stroke:rgb(0%,0%,0%);stroke-opacity:1;stroke-miterlimit:10;" d="M 0 0.00159973 L 0 100.000193 " transform="matrix(0.996264,0,0,-0.996264,0.75,100.443)"/>
<path style="fill:none;stroke-width:0.39998;stroke-linecap:butt;stroke-linejoin:miter;stroke:rgb(0%,0%,0%);stroke-opacity:1;stroke-miterlimit:10;" d="M 0 0.00159973 L 74.998945 0.00159973 " transform="matrix(0.996264,0,0,-0.996264,0.75,100.443)"/>
<path style="fill:none;stroke-width:0.39998;stroke-linecap:butt;stroke-linejoin:miter;stroke:rgb(0%,0%,100%);stroke-opacity:1;stroke-miterlimit:10;" d="M 0.00078418 0.00159973 L -19.999719 79.999691 " transform="matrix(0.996264,0,0,-0.996264,20.675,100.443)"/>
<path style=" stroke:none;fill-rule:nonzero;fill:rgb(100%,0%,0%);fill-opacity:1;" d="M 10.710938 90.480469 C 10.480469 89.078125 10.019531 87.675781 9.328125 86.269531 L 12.097656 86.269531 C 11.40625 87.675781 10.941406 89.078125 10.710938 90.480469 "/>
<path style="fill:none;stroke-width:0.39998;stroke-linecap:butt;stroke-linejoin:miter;stroke:rgb(100%,0%,0%);stroke-opacity:1;stroke-miterlimit:10;" d="M -0.00106648 -0.000752812 L -0.00106648 -28.054781 " transform="matrix(0.996264,0,0,-0.996264,10.712,60.593)"/>
<path style=" stroke:none;fill-rule:nonzero;fill:rgb(100%,0%,0%);fill-opacity:1;" d="M 20.675781 74.539063 C 20.90625 75.945313 21.367188 77.347656 22.058594 78.75 L 19.289063 78.75 C 19.984375 77.347656 20.445313 75.945313 20.675781 74.539063 "/>
<path style="fill:none;stroke-width:0.39998;stroke-linecap:butt;stroke-linejoin:miter;stroke:rgb(100%,0%,0%);stroke-opacity:1;stroke-miterlimit:10;" d="M 0.00078418 0.00169383 L 0.00078418 23.052656 " transform="matrix(0.996264,0,0,-0.996264,20.675,99.447)"/>
<path style=" stroke:none;fill-rule:nonzero;fill:rgb(100%,0%,0%);fill-opacity:1;" d="M 7.722656 99.445313 C 9.128906 99.214844 10.53125 98.753906 11.933594 98.0625 L 11.933594 100.832031 C 10.53125 100.140625 9.128906 99.679688 7.722656 99.445313 "/>
<path style="fill:none;stroke-width:0.39998;stroke-linecap:butt;stroke-linejoin:miter;stroke:rgb(100%,0%,0%);stroke-opacity:1;stroke-miterlimit:10;" d="M 0.000690078 0.00169383 L -10.056414 0.00169383 " transform="matrix(0.996264,0,0,-0.996264,19.679,99.447)"/>
<path style=" stroke:none;fill-rule:nonzero;fill:rgb(100%,0%,0%);fill-opacity:1;" d="M 13.699219 20.742188 C 12.296875 20.972656 10.894531 21.433594 9.492188 22.125 L 9.492188 19.355469 C 10.894531 20.050781 12.296875 20.511719 13.699219 20.742188 "/>
<path style="fill:none;stroke-width:0.39998;stroke-linecap:butt;stroke-linejoin:miter;stroke:rgb(100%,0%,0%);stroke-opacity:1;stroke-miterlimit:10;" d="M 0.0000941016 -0.000188203 L 10.053278 -0.000188203 " transform="matrix(0.996264,0,0,-0.996264,1.746,20.742)"/>
<path style=" stroke:none;fill-rule:nonzero;fill:rgb(100%,0%,0%);fill-opacity:1;" d="M 1.746094 11.777344 C 1.976563 13.179688 2.4375 14.582031 3.128906 15.984375 L 0.359375 15.984375 C 1.054688 14.582031 1.515625 13.179688 1.746094 11.777344 "/>
<path style="fill:none;stroke-width:0.39998;stroke-linecap:butt;stroke-linejoin:miter;stroke:rgb(100%,0%,0%);stroke-opacity:1;stroke-miterlimit:10;" d="M 0.0000941016 -0.0000941016 L 0.0000941016 6.053773 " transform="matrix(0.996264,0,0,-0.996264,1.746,19.746)"/>
</g>
</svg>
